<svg xmlns="http://www.w3.org/2000/svg" xmlns:xlink="http://www.w3.org/1999/xlink" id="Capa_1" x="0px" y="0px" viewBox="0 0 372.3 341.9" style="enable-background:new 0 0 372.3 341.9;" xml:space="preserve"><style type="text/css">	.st0{fill:none;stroke:#000000;stroke-width:0.75;stroke-miterlimit:10;}	.st1{fill:#383838;}	.st2{fill:#0E888E;}	.st3{fill:#FFFFFF;stroke:#000000;stroke-miterlimit:10;}	.st4{fill:#393939;}	.st5{fill:#FFFFFF;}	.st6{opacity:0.2;fill:#1A6766;}	.st7{fill:#062928;}	.st8{fill:#1A6766;}	.st9{fill:#155455;}	.st10{opacity:0.5;fill:#154949;}	.st11{fill:none;stroke:#FFFFFF;stroke-width:2.7459;stroke-miterlimit:10;}	.st12{opacity:0.2;fill:#030202;}	.st13{opacity:0.5;}</style><g>	<g>		<path class="st5" d="M50.6,341.8v-11.6h-2.2v-1.8h6.3v1.8h-2.2v11.6H50.6z"></path>		<path class="st5" d="M63,341.8v-13.4h5.7v1.8H65v3.9h3.3v1.8H65v3.9h3.8v1.9H63z"></path>		<path class="st5" d="M77.5,341.8v-13.4h3.1c2.3,0,3.4,1.3,3.4,3.9c0,0.8-0.1,1.5-0.4,2c-0.2,0.6-0.7,1-1.3,1.3l2.1,6.1h-2   l-1.8-5.7h-1.1v5.7H77.5z M79.4,330.3v4.2h1.1c0.3,0,0.6,0,0.8-0.1c0.2-0.1,0.4-0.2,0.5-0.4c0.1-0.2,0.2-0.4,0.2-0.6   c0-0.3,0.1-0.6,0.1-0.9c0-0.3,0-0.6-0.1-0.9c0-0.3-0.1-0.5-0.2-0.7c-0.2-0.3-0.7-0.5-1.4-0.5H79.4z"></path>		<path class="st5" d="M93,341.8v-13.4h3.1c2.3,0,3.4,1.3,3.4,3.9c0,0.8-0.1,1.5-0.4,2c-0.2,0.6-0.7,1-1.3,1.3l2.1,6.1h-2l-1.8-5.7   h-1.1v5.7H93z M94.9,330.3v4.2H96c0.3,0,0.6,0,0.8-0.1c0.2-0.1,0.4-0.2,0.5-0.4c0.1-0.2,0.2-0.4,0.2-0.6c0-0.3,0.1-0.6,0.1-0.9   c0-0.3,0-0.6-0.1-0.9c0-0.3-0.1-0.5-0.2-0.7c-0.2-0.3-0.7-0.5-1.4-0.5H94.9z"></path>		<path class="st5" d="M108.5,341.8v-13.4h5.7v1.8h-3.8v3.9h3.3v1.8h-3.3v3.9h3.8v1.9H108.5z"></path>		<path class="st5" d="M122.9,341.8v-13.4h1.8l2.9,8.1h0v-8.1h1.9v13.4h-1.8l-2.9-8h0v8H122.9z"></path>		<path class="st5" d="M138.7,331.6c0-0.5,0.1-1,0.3-1.4c0.2-0.4,0.4-0.8,0.8-1c0.3-0.3,0.6-0.5,1-0.6c0.4-0.1,0.8-0.2,1.2-0.2   s0.8,0.1,1.2,0.2c0.4,0.1,0.7,0.3,1,0.6c0.3,0.3,0.5,0.6,0.7,1c0.2,0.4,0.3,0.9,0.3,1.4v7.1c0,0.6-0.1,1-0.3,1.4   c-0.2,0.4-0.4,0.7-0.7,1c-0.3,0.3-0.7,0.5-1,0.6c-0.4,0.1-0.8,0.2-1.2,0.2s-0.8-0.1-1.2-0.2c-0.4-0.1-0.7-0.3-1-0.6   c-0.3-0.3-0.6-0.6-0.8-1c-0.2-0.4-0.3-0.9-0.3-1.4V331.6z M140.6,338.7c0,0.5,0.1,0.8,0.4,1c0.3,0.2,0.6,0.3,0.9,0.3   c0.4,0,0.7-0.1,0.9-0.3c0.3-0.2,0.4-0.6,0.4-1v-7.1c0-0.5-0.1-0.8-0.4-1c-0.3-0.2-0.6-0.3-0.9-0.3c-0.3,0-0.7,0.1-0.9,0.3   c-0.3,0.2-0.4,0.6-0.4,1V338.7z"></path>		<path class="st5" d="M160.5,332.3h-1.9v-0.4c0-0.4-0.1-0.8-0.3-1.1c-0.2-0.3-0.6-0.5-1-0.5c-0.3,0-0.5,0-0.6,0.1   c-0.2,0.1-0.3,0.2-0.4,0.4c-0.1,0.2-0.2,0.3-0.2,0.6c0,0.2-0.1,0.4-0.1,0.6c0,0.3,0,0.5,0,0.7c0,0.2,0.1,0.3,0.1,0.5   c0.1,0.1,0.2,0.3,0.3,0.4c0.1,0.1,0.3,0.2,0.6,0.3l1.5,0.6c0.4,0.2,0.8,0.4,1,0.6c0.3,0.2,0.5,0.5,0.6,0.8c0.1,0.3,0.2,0.6,0.3,1   c0.1,0.4,0.1,0.8,0.1,1.3c0,0.6-0.1,1.1-0.2,1.6c-0.1,0.5-0.3,0.9-0.5,1.2c-0.3,0.4-0.6,0.6-1,0.8c-0.4,0.2-0.9,0.3-1.6,0.3   c-0.5,0-0.9-0.1-1.3-0.2c-0.4-0.2-0.7-0.4-1-0.7c-0.3-0.3-0.5-0.6-0.7-1c-0.2-0.4-0.3-0.8-0.3-1.2v-0.7h1.9v0.6   c0,0.4,0.1,0.7,0.3,0.9c0.2,0.3,0.6,0.4,1,0.4c0.3,0,0.6,0,0.8-0.1c0.2-0.1,0.3-0.2,0.4-0.4c0.1-0.2,0.2-0.4,0.2-0.6   c0-0.2,0-0.5,0-0.8c0-0.4,0-0.6,0-0.9c0-0.2-0.1-0.4-0.1-0.5c-0.1-0.1-0.2-0.3-0.3-0.3c-0.1-0.1-0.3-0.2-0.6-0.3l-1.4-0.6   c-0.8-0.3-1.4-0.8-1.7-1.3c-0.3-0.6-0.4-1.3-0.4-2.1c0-0.5,0.1-1,0.2-1.4c0.1-0.5,0.3-0.8,0.6-1.2c0.3-0.3,0.6-0.6,1-0.8   c0.4-0.2,0.9-0.3,1.5-0.3c0.5,0,0.9,0.1,1.3,0.3c0.4,0.2,0.7,0.4,1,0.7c0.6,0.6,0.9,1.3,0.9,2.1V332.3z"></path>		<path class="st5" d="M180.5,341.8v-13.4h5.7v1.8h-3.8v3.9h3.3v1.8h-3.3v3.9h3.8v1.9H180.5z"></path>		<path class="st5" d="M194.8,341.8v-13.4h1.8l2.9,8.1h0v-8.1h1.9v13.4h-1.8l-2.9-8h0v8H194.8z"></path>		<path class="st5" d="M221.8,341.8v-13.4h1.9v5.7h2.4v-5.7h1.9v13.4H226v-6h-2.4v6H221.8z"></path>		<path class="st5" d="M243.5,328.5v10.4c0,0.4-0.1,0.8-0.2,1.2c-0.2,0.4-0.4,0.7-0.7,1c-0.3,0.3-0.6,0.5-1,0.7   c-0.4,0.2-0.8,0.2-1.2,0.2c-0.4,0-0.8-0.1-1.2-0.2c-0.4-0.2-0.7-0.4-1-0.7c-0.3-0.3-0.5-0.6-0.7-1c-0.2-0.4-0.2-0.8-0.2-1.2v-10.4   h1.9v10.2c0,0.5,0.1,0.8,0.3,1.1c0.2,0.2,0.5,0.3,0.8,0.3c0.3,0,0.6-0.1,0.8-0.3c0.2-0.2,0.3-0.6,0.3-1.1v-10.2H243.5z"></path>		<path class="st5" d="M252.7,341.8v-13.4h1.8l2.9,8.1h0v-8.1h1.9v13.4h-1.8l-2.9-8h0v8H252.7z"></path>		<path class="st5" d="M274.8,328.5v10.4c0,0.4-0.1,0.8-0.2,1.2c-0.2,0.4-0.4,0.7-0.7,1c-0.3,0.3-0.6,0.5-1,0.7   c-0.4,0.2-0.8,0.2-1.2,0.2c-0.4,0-0.8-0.1-1.2-0.2c-0.4-0.2-0.7-0.4-1-0.7c-0.3-0.3-0.5-0.6-0.7-1c-0.2-0.4-0.2-0.8-0.2-1.2v-10.4   h1.9v10.2c0,0.5,0.1,0.8,0.3,1.1c0.2,0.2,0.5,0.3,0.8,0.3c0.3,0,0.6-0.1,0.8-0.3c0.2-0.2,0.3-0.6,0.3-1.1v-10.2H274.8z    M270.5,327.9l1.7-2.6h2l-2.5,2.6H270.5z"></path>		<path class="st5" d="M290.2,338v0.8c0,0.4-0.1,0.8-0.2,1.2c-0.2,0.4-0.4,0.7-0.6,1c-0.3,0.3-0.6,0.5-1,0.7   c-0.4,0.2-0.8,0.3-1.2,0.3c-0.4,0-0.7,0-1.1-0.1c-0.4-0.1-0.7-0.3-1-0.5c-0.3-0.3-0.5-0.6-0.7-1s-0.3-0.9-0.3-1.5v-7.4   c0-0.4,0.1-0.8,0.2-1.2c0.1-0.4,0.4-0.7,0.6-1c0.3-0.3,0.6-0.5,1-0.6c0.4-0.2,0.8-0.2,1.3-0.2c0.9,0,1.6,0.3,2.2,0.9   c0.3,0.3,0.5,0.6,0.6,1c0.2,0.4,0.2,0.8,0.2,1.3v0.8h-1.9v-0.6c0-0.4-0.1-0.7-0.3-1c-0.2-0.3-0.5-0.4-0.9-0.4   c-0.5,0-0.8,0.1-0.9,0.4c-0.2,0.3-0.2,0.7-0.2,1.1v6.8c0,0.4,0.1,0.7,0.3,1s0.5,0.4,0.9,0.4c0.1,0,0.3,0,0.4-0.1   c0.1,0,0.3-0.1,0.4-0.2c0.1-0.1,0.2-0.2,0.3-0.4c0.1-0.2,0.1-0.4,0.1-0.7V338H290.2z"></path>		<path class="st5" d="M299.3,341.8v-13.4h1.8l2.5,7.1h0l2.4-7.1h1.9v13.4H306v-8.1h0l-1.9,5.7h-1l-1.9-5.7h0v8.1H299.3z"></path>		<path class="st5" d="M316.4,341.8l3-13.4h1.6l3,13.4H322l-0.6-2.9h-2.6l-0.6,2.9H316.4z M321.1,337.2l-0.9-4.8h0l-0.9,4.8H321.1z"></path>	</g>	<g>		<g>			<path class="st5" d="M248.7,116.5l-14.1-5.8l2.5-2.2c1.3-1.1,2.1-2.6,2.5-4.2l7.5-34.7c0.2-0.6,0.2-1.3,0.2-1.9    c0-4.3-3.5-7.9-7.8-7.9c0,0,0,0,0,0c0,0-0.1,0-0.1,0c-1.8,0-3.5,0.7-4.8,1.7l-20.2,16c-0.1-1-0.3-2-0.7-2.9l-17.3-36.8    c-1.3-2.8-4.1-4.5-7.1-4.5c-0.6,0-1.1,0.1-1.7,0.2c-0.5,0.1-0.9,0.2-1.3,0.4c-0.4-0.2-0.8-0.3-1.3-0.4c-0.6-0.1-1.1-0.2-1.7-0.2    c-3,0-5.8,1.7-7.1,4.5l-17.3,36.8c-0.4,0.9-0.7,1.9-0.7,2.9l-20.3-16.1c-1.4-1.1-3.2-1.7-4.9-1.7c-1.4,0-2.9,0.4-4.2,1.2    c-2.8,1.8-4.2,5.1-3.5,8.3l7.5,35c0.4,1.6,1.2,3.1,2.5,4.2l2.5,2.2l-14.1,5.8c-2.8,1.1-4.6,3.8-4.9,6.7c-0.2,3,1.3,5.8,3.9,7.3    l31.6,18.4c1.2,0.7,2.6,1.1,4,1.1c1.5,0,2.9-0.4,4.2-1.2l19.1-12c0,11.6,0,23.3,0,34.9c0,6.1,9.5,6.1,9.5,0c0-11.6,0-23.3,0-34.9    l19.1,12c1.3,0.8,2.7,1.2,4.2,1.2c1.4,0,2.7-0.4,4-1.1l31.6-18.4c2.6-1.5,4.1-4.4,3.9-7.3C253.4,120.3,251.5,117.7,248.7,116.5z     M158.1,142.2l-31.6-18.4l25.7-10.6l-12-10.6l-7.5-35L153.5,84l22.4,22.3l-10.1-28.4L181.3,45c0,16-0.2,74.7-0.2,81.4    c0,0.4,0.1,0.9,0.1,1.3L158.1,142.2z M214.2,142.2l-23.1-14.4c0.1-0.4,0.1-0.9,0.1-1.3c0-6.7-0.1-65.5-0.2-81.4l15.5,32.9    l-10.1,28.4L218.8,84l20.7-16.4l-7.5,35l-12,10.6l25.7,10.6L214.2,142.2z"></path>		</g>		<path class="st5" d="M267.3,128.4V81.2c0-44.8-36.4-81.2-81.2-81.2S105,36.4,105,81.2v47.3c0,25.8,12.6,50.4,33.6,65.7   c3,2.2,6.1,4.1,9.3,5.9c3.9,2.1,8.1,3.9,12.3,5.3l8.7,2.4c5.7,1.2,11.4,1.9,17.2,1.9C230.9,209.6,267.3,173.2,267.3,128.4z    M186.1,201.7c-12,0-24-3-34.5-8.7c-2.9-1.6-5.7-3.4-8.4-5.3c-19-13.8-30.3-36-30.3-59.3V81.2c0-40.4,32.9-73.3,73.3-73.3   s73.3,32.9,73.3,73.3v47.3C259.4,168.9,226.5,201.7,186.1,201.7z"></path>	</g>	<g>		<path class="st5" d="M44.1,289.8c0,2-0.3,3.6-0.8,4.8c-0.5,1.2-1.2,2.2-2,2.8c-0.8,0.7-1.7,1.2-2.5,1.5c-0.9,0.3-1.7,0.4-2.3,0.4   c-1.2,0-2.3-0.3-3.4-0.8c-1.1-0.6-2-1.2-2.8-2.1l-8.9,7.1c1.4,1.6,3.3,3.1,5.7,4.7c2.4,1.6,5.4,2.4,9,2.4c3.1,0,5.8-0.5,8.2-1.6   c2.3-1,4.3-2.4,6-4.2c3.4-3.6,5.1-8.1,5.1-13.5v-60.3H44.1V289.8z"></path>		<polygon class="st5" points="66,310 99.7,310 99.7,298.7 77.3,298.7 77.3,275.5 96.8,275.5 96.8,264.9 77.3,264.9 77.3,241.7    99.7,241.7 99.7,231.1 66,231.1   "></polygon>		<path class="st5" d="M143,266.1c1.4-3.3,2.2-7.2,2.2-11.9c0-15.4-6.7-23.2-20-23.2H107V310h11.3v-33.7h6.8l10.5,33.7h12l-12.2-36   C139,272,141.6,269.4,143,266.1z M133.5,259.3c-0.2,1.5-0.6,2.8-1.2,3.8c-0.7,1-1.6,1.8-2.8,2.4c-1.2,0.6-2.8,0.8-4.8,0.8h-6.4   v-24.6h5.9c3.9,0,6.6,1,8,3.1c0.7,1.1,1.1,2.4,1.3,3.9c0.2,1.5,0.3,3.3,0.3,5.3S133.8,257.8,133.5,259.3z"></path>		<path class="st5" d="M185.5,235.2c-1.8-1.6-3.9-2.7-6.2-3.5c-2.3-0.8-4.5-1.2-6.8-1.2c-2.3,0-4.6,0.4-6.8,1.2   c-2.3,0.8-4.3,2-6,3.5c-1.8,1.6-3.3,3.7-4.4,6.1c-1.1,2.4-1.7,5.2-1.7,8.4v41.7c0,3.3,0.6,6.2,1.7,8.5c1.1,2.4,2.6,4.3,4.4,5.9   c1.8,1.6,3.8,2.8,6,3.7c2.3,0.8,4.5,1.2,6.8,1.2c2.3,0,4.6-0.4,6.8-1.2c2.3-0.8,4.3-2,6.2-3.7c1.8-1.6,3.2-3.5,4.3-5.9   c1.1-2.4,1.7-5.2,1.7-8.5v-41.7c0-3.2-0.6-6-1.7-8.4C188.8,238.8,187.3,236.8,185.5,235.2z M180.2,291.4c0,2.7-0.8,4.7-2.3,6   c-1.5,1.3-3.3,1.9-5.4,1.9c-2.1,0-3.9-0.6-5.4-1.9c-1.5-1.3-2.3-3.3-2.3-6v-41.7c0-2.7,0.8-4.7,2.3-6c1.5-1.3,3.3-1.9,5.4-1.9   c2.1,0,3.9,0.6,5.4,1.9c1.5,1.3,2.3,3.3,2.3,6V291.4z"></path>		<polygon class="st5" points="229.2,278.6 229,278.6 211.9,231.1 201.1,231.1 201.1,310 212.4,310 212.4,262.6 212.6,262.6    229.9,310 240.5,310 240.5,231.1 229.2,231.1   "></polygon>		<rect x="251.1" y="231.1" class="st5" width="11.3" height="78.9"></rect>		<polygon class="st5" points="299,272.9 298.8,272.9 284.2,231.1 273.4,231.1 273.4,310 284.7,310 284.7,262 284.9,262 296,295.9    301.6,295.9 312.8,262 313.1,262 313.1,310 324.4,310 324.4,231.1 313.4,231.1   "></polygon>		<path class="st5" d="M370.6,241.3c-1.1-2.4-2.5-4.5-4.3-6.1c-1.8-1.6-3.9-2.7-6.2-3.5c-2.3-0.8-4.5-1.2-6.8-1.2   c-2.3,0-4.6,0.4-6.8,1.2c-2.3,0.8-4.3,2-6,3.5c-1.8,1.6-3.3,3.7-4.4,6.1c-1.1,2.4-1.7,5.2-1.7,8.4v41.7c0,3.3,0.6,6.2,1.7,8.5   c1.1,2.4,2.6,4.3,4.4,5.9c1.8,1.6,3.8,2.8,6,3.7c2.3,0.8,4.5,1.2,6.8,1.2c2.3,0,4.6-0.4,6.8-1.2c2.3-0.8,4.3-2,6.2-3.7   c1.8-1.6,3.2-3.5,4.3-5.9c1.1-2.4,1.7-5.2,1.7-8.5v-41.7C372.3,246.5,371.7,243.7,370.6,241.3z M361,291.4c0,2.7-0.8,4.7-2.3,6   c-1.5,1.3-3.3,1.9-5.4,1.9c-2.1,0-3.9-0.6-5.4-1.9c-1.5-1.3-2.3-3.3-2.3-6v-41.7c0-2.7,0.8-4.7,2.3-6c1.5-1.3,3.3-1.9,5.4-1.9   c2.1,0,3.9,0.6,5.4,1.9c1.5,1.3,2.3,3.3,2.3,6V291.4z"></path>		<g>			<path class="st5" d="M10.4,272.2v5H9.3c-1.1,0-2.1,0.3-3,0.8S5,279.5,5,280.8c0,0.7,0.1,1.2,0.4,1.7c0.3,0.4,0.6,0.8,1,1    c0.4,0.3,0.9,0.4,1.5,0.5s1.1,0.1,1.7,0.1c0.7,0,1.3,0,1.7-0.1c0.5,0,0.9-0.2,1.2-0.4c0.4-0.2,0.7-0.5,0.9-0.9    c0.3-0.4,0.5-0.9,0.8-1.6l1.5-3.8c0.4-1.1,0.9-2,1.5-2.7c0.6-0.7,1.2-1.2,2-1.6c0.8-0.4,1.7-0.6,2.7-0.7c1-0.1,2.1-0.2,3.4-0.2    c1.5,0,2.8,0.1,4.1,0.4c1.3,0.3,2.3,0.8,3.2,1.4c0.9,0.7,1.6,1.6,2.2,2.7c0.5,1.1,0.8,2.5,0.8,4.1c0,1.2-0.2,2.3-0.6,3.4    c-0.4,1.1-1,2-1.8,2.7c-0.8,0.8-1.6,1.4-2.6,1.8c-1,0.4-2.1,0.7-3.3,0.7h-1.9v-5H27c0.9,0,1.7-0.3,2.5-0.8    c0.7-0.5,1.1-1.5,1.1-2.7c0-0.9-0.1-1.5-0.4-2c-0.2-0.5-0.6-0.8-1.1-1.1c-0.5-0.3-1-0.4-1.6-0.5c-0.6,0-1.4-0.1-2.1-0.1    c-0.9,0-1.7,0-2.3,0.1c-0.6,0.1-1.1,0.2-1.4,0.4c-0.4,0.2-0.7,0.5-0.9,0.9c-0.2,0.4-0.5,0.9-0.7,1.5l-1.5,3.6    c-0.9,2.2-2.1,3.6-3.5,4.4c-1.5,0.7-3.3,1.1-5.5,1.1c-1.3,0-2.6-0.2-3.7-0.5c-1.2-0.4-2.2-0.9-3.1-1.6c-0.9-0.7-1.5-1.6-2-2.6    C0.3,283.3,0,282,0,280.6c0-1.2,0.2-2.4,0.7-3.4c0.5-1,1.1-1.9,1.8-2.7c1.6-1.5,3.4-2.3,5.4-2.3H10.4z"></path>			<path class="st5" d="M35.4,270.7l-35.1-7.8v-4.2l35.1-7.8v5l-7.5,1.5v6.8l7.5,1.5V270.7z M23.1,258.3l-12.7,2.5v0.1l12.7,2.5    V258.3z"></path>			<path class="st5" d="M35.4,248.6H0.3v-4.8l21.1-7.6v-0.1H0.3v-5h35.1v4.7l-21.1,7.7v0.1h21.1V248.6z"></path>		</g>		<path class="st5" d="M169.6,227.5c0.1-0.2,5.1-11.6,5.1-11.6l6.5,1.8l-6.8,10.6L169.6,227.5z"></path>	</g></g></svg>