<svg xmlns="http://www.w3.org/2000/svg" xmlns:xlink="http://www.w3.org/1999/xlink" id="Capa_1" x="0px" y="0px" viewBox="0 0 372.3 126" style="enable-background:new 0 0 372.3 126;" xml:space="preserve"><style type="text/css">	.st0{fill:none;stroke:#FFFFFF;stroke-width:0.75;stroke-miterlimit:10;}	.st1{fill:#FFFFFF;}	.st2{fill:#FFFFFF;}	.st3{fill:#FFFFFF;stroke:#FFFFFF;stroke-miterlimit:10;}	.st4{fill:#FFFFFF;}	.st5{fill:#FFFFFF;}	.st6{opacity:1;fill:#FFFFFF;}	.st7{fill:#FFFFFF;}	.st8{fill:#FFFFFF;}	.st9{fill:#FFFFFF;}	.st10{opacity:1;fill:#FFFFFF;}	.st11{fill:none;stroke:#FFFFFF;stroke-width:2.7459;stroke-miterlimit:10;}	.st12{opacity:1;fill:#FFFFFF;}	.st13{opacity:1;}</style><g>	<g>		<path class="st2" d="M50.6,125.9v-11.6h-2.2v-1.8h6.3v1.8h-2.2v11.6H50.6z"></path>		<path class="st2" d="M63,125.9v-13.4h5.7v1.8H65v3.9h3.3v1.8H65v3.9h3.8v1.9H63z"></path>		<path class="st2" d="M77.5,125.9v-13.4h3.1c2.3,0,3.4,1.3,3.4,3.9c0,0.8-0.1,1.5-0.4,2c-0.2,0.6-0.7,1-1.3,1.3l2.1,6.1h-2   l-1.8-5.7h-1.1v5.7H77.5z M79.4,114.4v4.2h1.1c0.3,0,0.6,0,0.8-0.1s0.4-0.2,0.5-0.4c0.1-0.2,0.2-0.4,0.2-0.6   c0-0.3,0.1-0.6,0.1-0.9c0-0.3,0-0.6-0.1-0.9c0-0.3-0.1-0.5-0.2-0.7c-0.2-0.3-0.7-0.5-1.4-0.5H79.4z"></path>		<path class="st2" d="M93,125.9v-13.4h3.1c2.3,0,3.4,1.3,3.4,3.9c0,0.8-0.1,1.5-0.4,2c-0.2,0.6-0.7,1-1.3,1.3l2.1,6.1h-2l-1.8-5.7   h-1.1v5.7H93z M94.9,114.4v4.2H96c0.3,0,0.6,0,0.8-0.1s0.4-0.2,0.5-0.4c0.1-0.2,0.2-0.4,0.2-0.6c0-0.3,0.1-0.6,0.1-0.9   c0-0.3,0-0.6-0.1-0.9c0-0.3-0.1-0.5-0.2-0.7c-0.2-0.3-0.7-0.5-1.4-0.5H94.9z"></path>		<path class="st2" d="M108.5,125.9v-13.4h5.7v1.8h-3.8v3.9h3.3v1.8h-3.3v3.9h3.8v1.9H108.5z"></path>		<path class="st2" d="M122.9,125.9v-13.4h1.8l2.9,8.1h0v-8.1h1.9v13.4h-1.8l-2.9-8h0v8H122.9z"></path>		<path class="st2" d="M138.7,115.7c0-0.5,0.1-1,0.3-1.4c0.2-0.4,0.4-0.8,0.8-1c0.3-0.3,0.6-0.5,1-0.6c0.4-0.1,0.8-0.2,1.2-0.2   s0.8,0.1,1.2,0.2c0.4,0.1,0.7,0.3,1,0.6c0.3,0.3,0.5,0.6,0.7,1c0.2,0.4,0.3,0.9,0.3,1.4v7.1c0,0.6-0.1,1-0.3,1.4   c-0.2,0.4-0.4,0.7-0.7,1c-0.3,0.3-0.7,0.5-1,0.6c-0.4,0.1-0.8,0.2-1.2,0.2s-0.8-0.1-1.2-0.2c-0.4-0.1-0.7-0.3-1-0.6   c-0.3-0.3-0.6-0.6-0.8-1c-0.2-0.4-0.3-0.9-0.3-1.4V115.7z M140.6,122.8c0,0.5,0.1,0.8,0.4,1c0.3,0.2,0.6,0.3,0.9,0.3   c0.4,0,0.7-0.1,0.9-0.3c0.3-0.2,0.4-0.6,0.4-1v-7.1c0-0.5-0.1-0.8-0.4-1c-0.3-0.2-0.6-0.3-0.9-0.3c-0.3,0-0.7,0.1-0.9,0.3   c-0.3,0.2-0.4,0.6-0.4,1V122.8z"></path>		<path class="st2" d="M160.5,116.4h-1.9V116c0-0.4-0.1-0.8-0.3-1.1c-0.2-0.3-0.6-0.5-1-0.5c-0.3,0-0.5,0-0.6,0.1   c-0.2,0.1-0.3,0.2-0.4,0.4c-0.1,0.2-0.2,0.3-0.2,0.6c0,0.2-0.1,0.4-0.1,0.6c0,0.3,0,0.5,0,0.7c0,0.2,0.1,0.3,0.1,0.5   c0.1,0.1,0.2,0.3,0.3,0.4c0.1,0.1,0.3,0.2,0.6,0.3l1.5,0.6c0.4,0.2,0.8,0.4,1,0.6c0.3,0.2,0.5,0.5,0.6,0.8c0.1,0.3,0.2,0.6,0.3,1   c0.1,0.4,0.1,0.8,0.1,1.3c0,0.6-0.1,1.1-0.2,1.6c-0.1,0.5-0.3,0.9-0.5,1.2c-0.3,0.4-0.6,0.6-1,0.8c-0.4,0.2-0.9,0.3-1.6,0.3   c-0.5,0-0.9-0.1-1.3-0.2c-0.4-0.2-0.7-0.4-1-0.7c-0.3-0.3-0.5-0.6-0.7-1c-0.2-0.4-0.3-0.8-0.3-1.2v-0.7h1.9v0.6   c0,0.4,0.1,0.7,0.3,0.9c0.2,0.3,0.6,0.4,1,0.4c0.3,0,0.6,0,0.8-0.1c0.2-0.1,0.3-0.2,0.4-0.4c0.1-0.2,0.2-0.4,0.2-0.6   c0-0.2,0-0.5,0-0.8c0-0.4,0-0.6,0-0.9c0-0.2-0.1-0.4-0.1-0.5c-0.1-0.1-0.2-0.3-0.3-0.3c-0.1-0.1-0.3-0.2-0.6-0.3l-1.4-0.6   c-0.8-0.3-1.4-0.8-1.7-1.3c-0.3-0.6-0.4-1.3-0.4-2.1c0-0.5,0.1-1,0.2-1.4c0.1-0.5,0.3-0.8,0.6-1.2c0.3-0.3,0.6-0.6,1-0.8   c0.4-0.2,0.9-0.3,1.5-0.3c0.5,0,0.9,0.1,1.3,0.3c0.4,0.2,0.7,0.4,1,0.7c0.6,0.6,0.9,1.3,0.9,2.1V116.4z"></path>		<path class="st2" d="M180.5,125.9v-13.4h5.7v1.8h-3.8v3.9h3.3v1.8h-3.3v3.9h3.8v1.9H180.5z"></path>		<path class="st2" d="M194.8,125.9v-13.4h1.8l2.9,8.1h0v-8.1h1.9v13.4h-1.8l-2.9-8h0v8H194.8z"></path>		<path class="st2" d="M221.8,125.9v-13.4h1.9v5.7h2.4v-5.7h1.9v13.4H226v-6h-2.4v6H221.8z"></path>		<path class="st2" d="M243.5,112.6v10.4c0,0.4-0.1,0.8-0.2,1.2c-0.2,0.4-0.4,0.7-0.7,1c-0.3,0.3-0.6,0.5-1,0.7   c-0.4,0.2-0.8,0.2-1.2,0.2c-0.4,0-0.8-0.1-1.2-0.2c-0.4-0.2-0.7-0.4-1-0.7c-0.3-0.3-0.5-0.6-0.7-1c-0.2-0.4-0.2-0.8-0.2-1.2v-10.4   h1.9v10.2c0,0.5,0.1,0.8,0.3,1.1c0.2,0.2,0.5,0.3,0.8,0.3c0.3,0,0.6-0.1,0.8-0.3c0.2-0.2,0.3-0.6,0.3-1.1v-10.2H243.5z"></path>		<path class="st2" d="M252.7,125.9v-13.4h1.8l2.9,8.1h0v-8.1h1.9v13.4h-1.8l-2.9-8h0v8H252.7z"></path>		<path class="st2" d="M274.8,112.6v10.4c0,0.4-0.1,0.8-0.2,1.2c-0.2,0.4-0.4,0.7-0.7,1c-0.3,0.3-0.6,0.5-1,0.7   c-0.4,0.2-0.8,0.2-1.2,0.2c-0.4,0-0.8-0.1-1.2-0.2c-0.4-0.2-0.7-0.4-1-0.7c-0.3-0.3-0.5-0.6-0.7-1s-0.2-0.8-0.2-1.2v-10.4h1.9   v10.2c0,0.5,0.1,0.8,0.3,1.1c0.2,0.2,0.5,0.3,0.8,0.3c0.3,0,0.6-0.1,0.8-0.3c0.2-0.2,0.3-0.6,0.3-1.1v-10.2H274.8z M270.5,112   l1.7-2.6h2l-2.5,2.6H270.5z"></path>		<path class="st2" d="M290.2,122.1v0.8c0,0.4-0.1,0.8-0.2,1.2c-0.2,0.4-0.4,0.7-0.6,1c-0.3,0.3-0.6,0.5-1,0.7   c-0.4,0.2-0.8,0.3-1.2,0.3c-0.4,0-0.7,0-1.1-0.1c-0.4-0.1-0.7-0.3-1-0.5c-0.3-0.3-0.5-0.6-0.7-1c-0.2-0.4-0.3-0.9-0.3-1.5v-7.4   c0-0.4,0.1-0.8,0.2-1.2c0.1-0.4,0.4-0.7,0.6-1c0.3-0.3,0.6-0.5,1-0.6s0.8-0.2,1.3-0.2c0.9,0,1.6,0.3,2.2,0.9   c0.3,0.3,0.5,0.6,0.6,1c0.2,0.4,0.2,0.8,0.2,1.3v0.8h-1.9v-0.6c0-0.4-0.1-0.7-0.3-1s-0.5-0.4-0.9-0.4c-0.5,0-0.8,0.1-0.9,0.4   c-0.2,0.3-0.2,0.7-0.2,1.1v6.8c0,0.4,0.1,0.7,0.3,1s0.5,0.4,0.9,0.4c0.1,0,0.3,0,0.4-0.1c0.1,0,0.3-0.1,0.4-0.2   c0.1-0.1,0.2-0.2,0.3-0.4c0.1-0.2,0.1-0.4,0.1-0.7v-0.7H290.2z"></path>		<path class="st2" d="M299.3,125.9v-13.4h1.8l2.5,7.1h0l2.4-7.1h1.9v13.4H306v-8.1h0l-1.9,5.7h-1l-1.9-5.7h0v8.1H299.3z"></path>		<path class="st2" d="M316.4,125.9l3-13.4h1.6l3,13.4H322l-0.6-2.9h-2.6l-0.6,2.9H316.4z M321.1,121.2l-0.9-4.8h0l-0.9,4.8H321.1z"></path>	</g>	<g>		<path class="st2" d="M44.1,73.9c0,2-0.3,3.6-0.8,4.8c-0.5,1.2-1.2,2.2-2,2.8c-0.8,0.7-1.7,1.2-2.5,1.5c-0.9,0.3-1.7,0.4-2.3,0.4   c-1.2,0-2.3-0.3-3.4-0.8c-1.1-0.6-2-1.2-2.8-2.1l-8.9,7.1c1.4,1.6,3.3,3.1,5.7,4.7c2.4,1.6,5.4,2.4,9,2.4c3.1,0,5.8-0.5,8.2-1.6   c2.3-1,4.3-2.4,6-4.2c3.4-3.6,5.1-8.1,5.1-13.5V15.2H44.1V73.9z"></path>		<polygon class="st2" points="66,94.1 99.7,94.1 99.7,82.8 77.3,82.8 77.3,59.6 96.8,59.6 96.8,49 77.3,49 77.3,25.8 99.7,25.8    99.7,15.2 66,15.2   "></polygon>		<path class="st2" d="M143,50.2c1.4-3.3,2.2-7.2,2.2-11.9c0-15.4-6.7-23.2-20-23.2H107v78.9h11.3V60.4h6.8l10.5,33.7h12l-12.2-36   C139,56.1,141.6,53.5,143,50.2z M133.5,43.4c-0.2,1.5-0.6,2.8-1.2,3.8c-0.7,1-1.6,1.8-2.8,2.4c-1.2,0.6-2.8,0.8-4.8,0.8h-6.4V25.8   h5.9c3.9,0,6.6,1,8,3.1c0.7,1.1,1.1,2.4,1.3,3.9c0.2,1.5,0.3,3.3,0.3,5.3C133.9,40.1,133.8,41.9,133.5,43.4z"></path>		<path class="st2" d="M185.5,19.3c-1.8-1.6-3.9-2.7-6.2-3.5c-2.3-0.8-4.5-1.2-6.8-1.2c-2.3,0-4.6,0.4-6.8,1.2c-2.3,0.8-4.3,2-6,3.5   c-1.8,1.6-3.3,3.7-4.4,6.1c-1.1,2.4-1.7,5.2-1.7,8.4v41.7c0,3.3,0.6,6.2,1.7,8.5c1.1,2.4,2.6,4.3,4.4,5.9c1.8,1.6,3.8,2.8,6,3.7   c2.3,0.8,4.5,1.2,6.8,1.2c2.3,0,4.6-0.4,6.8-1.2c2.3-0.8,4.3-2,6.2-3.7c1.8-1.6,3.2-3.5,4.3-5.9c1.1-2.4,1.7-5.2,1.7-8.5V33.8   c0-3.2-0.6-6-1.7-8.4C188.8,22.9,187.3,20.9,185.5,19.3z M180.2,75.5c0,2.7-0.8,4.7-2.3,6c-1.5,1.3-3.3,1.9-5.4,1.9   c-2.1,0-3.9-0.6-5.4-1.9c-1.5-1.3-2.3-3.3-2.3-6V33.8c0-2.7,0.8-4.7,2.3-6c1.5-1.3,3.3-1.9,5.4-1.9c2.1,0,3.9,0.6,5.4,1.9   c1.5,1.3,2.3,3.3,2.3,6V75.5z"></path>		<polygon class="st2" points="229.2,62.7 229,62.7 211.9,15.2 201.1,15.2 201.1,94.1 212.4,94.1 212.4,46.7 212.6,46.7 229.9,94.1    240.5,94.1 240.5,15.2 229.2,15.2   "></polygon>		<rect x="251.1" y="15.2" class="st2" width="11.3" height="78.9"></rect>		<polygon class="st2" points="299,57 298.8,57 284.2,15.2 273.4,15.2 273.4,94.1 284.7,94.1 284.7,46.1 284.9,46.1 296,80    301.6,80 312.8,46.1 313.1,46.1 313.1,94.1 324.4,94.1 324.4,15.2 313.4,15.2   "></polygon>		<path class="st2" d="M370.6,25.4c-1.1-2.4-2.5-4.5-4.3-6.1c-1.8-1.6-3.9-2.7-6.2-3.5c-2.3-0.8-4.5-1.2-6.8-1.2   c-2.3,0-4.6,0.4-6.8,1.2c-2.3,0.8-4.3,2-6,3.5c-1.8,1.6-3.3,3.7-4.4,6.1c-1.1,2.4-1.7,5.2-1.7,8.4v41.7c0,3.3,0.6,6.2,1.7,8.5   c1.1,2.4,2.6,4.3,4.4,5.9c1.8,1.6,3.8,2.8,6,3.7c2.3,0.8,4.5,1.2,6.8,1.2c2.3,0,4.6-0.4,6.8-1.2c2.3-0.8,4.3-2,6.2-3.7   c1.8-1.6,3.2-3.5,4.3-5.9c1.1-2.4,1.7-5.2,1.7-8.5V33.8C372.3,30.6,371.7,27.8,370.6,25.4z M361,75.5c0,2.7-0.8,4.7-2.3,6   c-1.5,1.3-3.3,1.9-5.4,1.9c-2.1,0-3.9-0.6-5.4-1.9c-1.5-1.3-2.3-3.3-2.3-6V33.8c0-2.7,0.8-4.7,2.3-6c1.5-1.3,3.3-1.9,5.4-1.9   c2.1,0,3.9,0.6,5.4,1.9c1.5,1.3,2.3,3.3,2.3,6V75.5z"></path>		<g>			<path class="st2" d="M10.4,56.3v5H9.3c-1.1,0-2.1,0.3-3,0.8S5,63.6,5,64.8c0,0.7,0.1,1.2,0.4,1.7c0.3,0.4,0.6,0.8,1,1    c0.4,0.3,0.9,0.4,1.5,0.5s1.1,0.1,1.7,0.1c0.7,0,1.3,0,1.7-0.1c0.5,0,0.9-0.2,1.2-0.4c0.4-0.2,0.7-0.5,0.9-0.9    c0.3-0.4,0.5-0.9,0.8-1.6l1.5-3.8c0.4-1.1,0.9-2,1.5-2.7c0.6-0.7,1.2-1.2,2-1.6c0.8-0.4,1.7-0.6,2.7-0.7c1-0.1,2.1-0.2,3.4-0.2    c1.5,0,2.8,0.1,4.1,0.4c1.3,0.3,2.3,0.8,3.2,1.4c0.9,0.7,1.6,1.6,2.2,2.7c0.5,1.1,0.8,2.5,0.8,4.1c0,1.2-0.2,2.3-0.6,3.4    c-0.4,1.1-1,2-1.8,2.7c-0.8,0.8-1.6,1.4-2.6,1.8c-1,0.4-2.1,0.7-3.3,0.7h-1.9v-5H27c0.9,0,1.7-0.3,2.5-0.8    c0.7-0.5,1.1-1.5,1.1-2.7c0-0.9-0.1-1.5-0.4-2c-0.2-0.5-0.6-0.8-1.1-1.1c-0.5-0.3-1-0.4-1.6-0.5c-0.6,0-1.4-0.1-2.1-0.1    c-0.9,0-1.7,0-2.3,0.1c-0.6,0.1-1.1,0.2-1.4,0.4c-0.4,0.2-0.7,0.5-0.9,0.9c-0.2,0.4-0.5,0.9-0.7,1.5l-1.5,3.6    c-0.9,2.2-2.1,3.6-3.5,4.4c-1.5,0.7-3.3,1.1-5.5,1.1c-1.3,0-2.6-0.2-3.7-0.5c-1.2-0.4-2.2-0.9-3.1-1.6c-0.9-0.7-1.5-1.6-2-2.6    C0.3,67.4,0,66.1,0,64.7c0-1.2,0.2-2.4,0.7-3.4c0.5-1,1.1-1.9,1.8-2.7c1.6-1.5,3.4-2.3,5.4-2.3H10.4z"></path>			<path class="st2" d="M35.4,54.8L0.3,47v-4.2L35.4,35v5l-7.5,1.5v6.8l7.5,1.5V54.8z M23.1,42.4l-12.7,2.5V45l12.7,2.5V42.4z"></path>			<path class="st2" d="M35.4,32.7H0.3v-4.8l21.1-7.6v-0.1H0.3v-5h35.1v4.7l-21.1,7.7v0.1h21.1V32.7z"></path>		</g>		<path class="st2" d="M169.6,11.6c0.1-0.2,5.1-11.6,5.1-11.6l6.5,1.8l-6.8,10.6L169.6,11.6z"></path>	</g></g></svg>